<svg width="25" height="25" viewBox="0 0 25 25" fill="none" xmlns="http://www.w3.org/2000/svg">
<path d="M21.7721 20.2185H3.10938V11.9241L12.4407 3.11133L21.7721 11.9241V20.2185Z" fill="#E8EAF6"/>
<path d="M20.2168 10.8873L17.6248 8.2953V4.6665H20.2168V10.8873ZM3.10938 20.2185H21.7721V22.8105H3.10938V20.2185Z" fill="#C5CAE9"/>
<path d="M12.4414 2.22998L2.07324 11.8722L3.11006 13.0127L12.4414 4.35542L21.7728 13.0127L22.8096 11.8722L12.4414 2.22998Z" fill="#B71C1C"/>
<path d="M9.33105 14.5156H15.552V22.81H9.33105V14.5156Z" fill="#D84315"/>
<path d="M10.8867 8.81299H13.9972V11.9234H10.8867V8.81299Z" fill="#01579B"/>
<path d="M14.2553 18.4038C14.0998 18.4038 13.9961 18.5075 13.9961 18.663V19.6998C13.9961 19.8553 14.0998 19.959 14.2553 19.959C14.4108 19.959 14.5145 19.8553 14.5145 19.6998V18.663C14.5145 18.5075 14.4108 18.4038 14.2553 18.4038Z" fill="#FF8A65"/>
</svg>
